<svg width="120" height="18" viewBox="0 0 120 18" fill="none" xmlns="http://www.w3.org/2000/svg">
<path d="M4.11973 17H0.232227V1.025H4.11973V17ZM10.7572 11.4375H2.46973V8.15H10.7572V11.4375ZM10.9447 4.3125H1.35723V1.025H10.9447V4.3125ZM15.1779 17H11.2279L15.8029 1.025H21.6779L26.2279 17H22.2779L18.8904 3.6H18.6029L15.1779 17ZM22.3154 13.2375H15.1154V10.2H22.3154V13.2375ZM41.5541 17H37.0166L32.4291 10H31.4541V7.65H32.4291L36.9541 1.025H41.3791L35.7166 9.05V8.175L41.5541 17ZM31.8416 17H27.9666V1.025H31.8416V17ZM46.8795 17H43.0545V1.025H46.8795V17ZM54.242 17H44.192V13.7375H54.242V17ZM53.942 10.4625H45.292V7.325H53.942V10.4625ZM54.1295 4.25H44.1795V1.025H54.1295V4.25ZM56.702 1.0125H62.0895L66.4145 12.7375H66.5895L66.4145 5.9875V1.0125H70.1395V17H64.902L60.4145 5.0125H60.252L60.427 11.9125V17H56.702V1.0125ZM76.86 17H73.035V1.025H76.86V17ZM84.2225 17H74.1725V13.7375H84.2225V17ZM83.9225 10.4625H75.2725V7.325H83.9225V10.4625ZM84.11 4.25H74.16V1.025H84.11V4.25ZM94.0336 17H88.4711L85.6586 1.025H89.6336L91.1461 11.9875L91.4086 13.7375H91.6211L91.9086 11.9875L93.5461 1.3875H98.3336L99.9586 11.9875L100.234 13.7375H100.459L100.734 11.9875L102.271 1.025H106.196L103.421 17H97.8586L96.4711 7.4125L96.0336 4.6H95.8336L95.3961 7.4125L94.0336 17ZM113.129 17.3375C112.388 17.3375 111.692 17.2875 111.042 17.1875C110.4 17.0958 109.813 16.975 109.279 16.825C108.754 16.6667 108.292 16.5042 107.892 16.3375L107.554 12.7375C108.213 13.0458 108.992 13.3333 109.892 13.6C110.792 13.8583 111.746 13.9875 112.754 13.9875C113.729 13.9875 114.421 13.8667 114.829 13.625C115.246 13.375 115.454 12.9875 115.454 12.4625V12.375C115.454 12.025 115.358 11.7417 115.167 11.525C114.983 11.3 114.671 11.0958 114.229 10.9125C113.796 10.7208 113.208 10.5167 112.467 10.3C111.35 9.96667 110.417 9.59583 109.667 9.1875C108.925 8.77917 108.371 8.27083 108.004 7.6625C107.638 7.04583 107.454 6.26667 107.454 5.325V5.1625C107.454 3.7125 107.946 2.60417 108.929 1.8375C109.921 1.07083 111.375 0.687499 113.292 0.687499C114.442 0.687499 115.433 0.787499 116.267 0.9875C117.108 1.1875 117.821 1.425 118.404 1.7L118.742 5.05C118.1 4.74167 117.371 4.48333 116.554 4.275C115.746 4.05833 114.879 3.95 113.954 3.95C113.304 3.95 112.792 4.00417 112.417 4.1125C112.05 4.22083 111.792 4.37917 111.642 4.5875C111.492 4.7875 111.417 5.03333 111.417 5.325V5.375C111.417 5.675 111.5 5.9375 111.667 6.1625C111.842 6.3875 112.15 6.60417 112.592 6.8125C113.042 7.02083 113.679 7.24583 114.504 7.4875C115.613 7.8125 116.529 8.1625 117.254 8.5375C117.988 8.90417 118.533 9.38333 118.892 9.975C119.258 10.5583 119.442 11.3375 119.442 12.3125V12.5125C119.442 14.1208 118.921 15.3292 117.879 16.1375C116.838 16.9375 115.254 17.3375 113.129 17.3375Z" fill="#F8F8F8"/>
</svg>
